2026-03-11 15:03:42,614 [ERROR   ] moov atom not found
2026-03-11 15:04:01,244 [ERROR   ] moov atom not found
 (repeated 5 more times)
2026-03-11 15:04:01,245 [ERROR   ] error while decoding MB 22 62, bytestream -15
2026-03-11 15:22:51,918 [ERROR   ] moov atom not found
2026-03-11 15:22:55,080 [ERROR   ] moov atom not found
 (repeated 5 more times)
2026-03-11 15:22:55,080 [ERROR   ] error while decoding MB 22 62, bytestream -15
2026-03-11 15:33:35,068 [ERROR   ] error while decoding MB 101 23, bytestream -38
2026-03-11 15:34:25,789 [ERROR   ] error while decoding MB 65 24, bytestream -6
2026-03-11 15:36:53,570 [ERROR   ] error while decoding MB 47 40, bytestream -8
2026-03-11 15:37:35,067 [ERROR   ] error while decoding MB 58 44, bytestream -17
2026-03-11 15:37:35,149 [ERROR   ] error while decoding MB 59 18, bytestream -30
2026-03-11 15:37:44,345 [ERROR   ] error while decoding MB 60 34, bytestream -16
2026-03-11 15:37:57,911 [ERROR   ] error while decoding MB 43 65, bytestream -8
2026-03-11 15:39:15,735 [ERROR   ] error while decoding MB 6 26, bytestream -10
2026-03-11 15:44:15,993 [ERROR   ] moov atom not found
2026-03-11 15:44:20,581 [ERROR   ] moov atom not found
 (repeated 5 more times)
2026-03-11 15:44:20,582 [ERROR   ] error while decoding MB 22 62, bytestream -15
2026-03-11 15:50:35,571 [ERROR   ] moov atom not found
2026-03-11 15:50:40,263 [ERROR   ] moov atom not found
 (repeated 5 more times)
2026-03-11 15:50:40,263 [ERROR   ] error while decoding MB 22 62, bytestream -15
2026-03-11 15:51:14,156 [ERROR   ] moov atom not found
2026-03-11 15:51:18,942 [ERROR   ] moov atom not found
 (repeated 5 more times)
2026-03-11 15:51:18,943 [ERROR   ] error while decoding MB 22 62, bytestream -15
2026-03-11 15:51:51,304 [ERROR   ] moov atom not found
2026-03-11 15:51:55,700 [ERROR   ] moov atom not found
 (repeated 5 more times)
2026-03-11 15:51:55,701 [ERROR   ] error while decoding MB 22 62, bytestream -15
2026-03-11 15:52:27,484 [ERROR   ] moov atom not found
2026-03-11 15:52:32,058 [ERROR   ] moov atom not found
 (repeated 5 more times)
2026-03-11 15:52:32,059 [ERROR   ] error while decoding MB 22 62, bytestream -15
2026-03-11 15:53:04,463 [ERROR   ] moov atom not found
2026-03-11 15:53:08,519 [ERROR   ] moov atom not found
 (repeated 5 more times)
2026-03-11 15:53:08,520 [ERROR   ] error while decoding MB 22 62, bytestream -15
2026-03-11 15:53:41,125 [ERROR   ] moov atom not found
2026-03-11 15:53:45,668 [ERROR   ] moov atom not found
 (repeated 5 more times)
2026-03-11 15:53:45,668 [ERROR   ] error while decoding MB 22 62, bytestream -15
2026-03-11 15:54:18,228 [ERROR   ] moov atom not found
2026-03-11 15:54:22,057 [ERROR   ] moov atom not found
 (repeated 5 more times)
2026-03-11 15:54:22,057 [ERROR   ] error while decoding MB 22 62, bytestream -15
2026-03-11 15:54:54,399 [ERROR   ] moov atom not found
2026-03-11 15:55:05,258 [ERROR   ] moov atom not found
 (repeated 5 more times)
2026-03-11 15:55:05,258 [ERROR   ] error while decoding MB 22 62, bytestream -15
2026-03-11 15:55:39,024 [ERROR   ] moov atom not found
2026-03-11 15:55:43,182 [ERROR   ] moov atom not found
 (repeated 5 more times)
2026-03-11 15:55:43,182 [ERROR   ] error while decoding MB 22 62, bytestream -15
2026-03-11 15:56:15,366 [ERROR   ] moov atom not found
2026-03-11 15:56:19,972 [ERROR   ] moov atom not found
 (repeated 5 more times)
2026-03-11 15:56:19,972 [ERROR   ] error while decoding MB 22 62, bytestream -15
2026-03-11 15:56:52,117 [ERROR   ] moov atom not found
2026-03-11 15:56:56,348 [ERROR   ] moov atom not found
 (repeated 5 more times)
2026-03-11 15:56:56,350 [ERROR   ] error while decoding MB 22 62, bytestream -15
2026-03-11 15:57:28,710 [ERROR   ] moov atom not found
2026-03-11 15:57:33,117 [ERROR   ] moov atom not found
 (repeated 5 more times)
2026-03-11 15:57:33,118 [ERROR   ] error while decoding MB 22 62, bytestream -15
2026-03-11 15:58:05,647 [ERROR   ] moov atom not found
2026-03-11 15:58:10,293 [ERROR   ] moov atom not found
 (repeated 5 more times)
2026-03-11 15:58:10,293 [ERROR   ] error while decoding MB 22 62, bytestream -15
2026-03-11 15:58:27,740 [ERROR   ] error while decoding MB 0 19, bytestream -7
2026-03-11 15:58:42,483 [ERROR   ] moov atom not found
2026-03-11 15:58:46,787 [ERROR   ] moov atom not found
 (repeated 5 more times)
2026-03-11 15:58:46,796 [ERROR   ] error while decoding MB 22 62, bytestream -15
2026-03-11 15:58:47,675 [ERROR   ] error while decoding MB 108 36, bytestream -6
2026-03-11 15:59:19,255 [ERROR   ] moov atom not found
2026-03-11 15:59:23,714 [ERROR   ] moov atom not found
 (repeated 5 more times)
2026-03-11 15:59:23,715 [ERROR   ] error while decoding MB 22 62, bytestream -15
2026-03-11 15:59:56,507 [ERROR   ] moov atom not found
2026-03-11 16:00:01,110 [ERROR   ] moov atom not found
 (repeated 5 more times)
2026-03-11 16:00:01,111 [ERROR   ] error while decoding MB 22 62, bytestream -15
2026-03-11 16:00:33,145 [ERROR   ] moov atom not found
2026-03-11 16:00:38,891 [ERROR   ] moov atom not found
 (repeated 5 more times)
2026-03-11 16:00:38,891 [ERROR   ] error while decoding MB 22 62, bytestream -15
2026-03-11 16:00:44,087 [ERROR   ] error while decoding MB 40 44, bytestream -6
2026-03-11 16:01:11,512 [ERROR   ] moov atom not found
2026-03-11 16:01:15,767 [ERROR   ] moov atom not found
 (repeated 5 more times)
2026-03-11 16:01:15,768 [ERROR   ] error while decoding MB 22 62, bytestream -15
2026-03-11 16:01:48,762 [ERROR   ] moov atom not found
2026-03-11 16:01:54,263 [ERROR   ] moov atom not found
 (repeated 5 more times)
2026-03-11 16:01:54,264 [ERROR   ] error while decoding MB 22 62, bytestream -15
2026-03-11 16:02:27,824 [ERROR   ] moov atom not found
2026-03-11 16:02:32,933 [ERROR   ] moov atom not found
 (repeated 5 more times)
2026-03-11 16:02:32,940 [ERROR   ] error while decoding MB 22 62, bytestream -15
2026-03-11 16:03:05,157 [ERROR   ] moov atom not found
2026-03-11 16:03:10,451 [ERROR   ] moov atom not found
 (repeated 5 more times)
2026-03-11 16:03:10,454 [ERROR   ] error while decoding MB 22 62, bytestream -15
2026-03-11 16:03:43,763 [ERROR   ] moov atom not found
2026-03-11 16:03:48,335 [ERROR   ] moov atom not found
 (repeated 5 more times)
2026-03-11 16:03:48,339 [ERROR   ] error while decoding MB 22 62, bytestream -15
2026-03-11 16:04:21,143 [ERROR   ] moov atom not found
2026-03-11 16:04:27,006 [ERROR   ] moov atom not found
 (repeated 5 more times)
2026-03-11 16:04:27,007 [ERROR   ] error while decoding MB 22 62, bytestream -15
2026-03-11 16:04:59,744 [ERROR   ] moov atom not found
2026-03-11 16:05:05,419 [ERROR   ] moov atom not found
 (repeated 5 more times)
2026-03-11 16:05:05,421 [ERROR   ] error while decoding MB 22 62, bytestream -15
2026-03-11 16:05:37,971 [ERROR   ] moov atom not found
2026-03-11 16:05:42,639 [ERROR   ] moov atom not found
 (repeated 5 more times)
2026-03-11 16:05:42,639 [ERROR   ] error while decoding MB 22 62, bytestream -15
2026-03-11 16:06:15,589 [ERROR   ] moov atom not found
2026-03-11 16:06:20,835 [ERROR   ] moov atom not found
 (repeated 5 more times)
2026-03-11 16:06:20,837 [ERROR   ] error while decoding MB 22 62, bytestream -15
2026-03-11 16:06:53,169 [ERROR   ] moov atom not found
2026-03-11 16:06:58,555 [ERROR   ] moov atom not found
 (repeated 5 more times)
2026-03-11 16:06:58,556 [ERROR   ] error while decoding MB 22 62, bytestream -15
2026-03-11 16:07:30,575 [ERROR   ] moov atom not found
2026-03-11 16:07:35,874 [ERROR   ] moov atom not found
 (repeated 5 more times)
2026-03-11 16:07:35,875 [ERROR   ] error while decoding MB 22 62, bytestream -15
2026-03-11 16:08:07,771 [ERROR   ] moov atom not found
2026-03-11 16:08:11,942 [ERROR   ] moov atom not found
 (repeated 5 more times)
2026-03-11 16:08:11,942 [ERROR   ] error while decoding MB 22 62, bytestream -15
2026-03-11 16:08:44,205 [ERROR   ] moov atom not found
2026-03-11 16:08:48,603 [ERROR   ] moov atom not found
 (repeated 5 more times)
2026-03-11 16:08:48,604 [ERROR   ] error while decoding MB 22 62, bytestream -15
2026-03-11 16:09:21,204 [ERROR   ] moov atom not found
2026-03-11 16:09:25,983 [ERROR   ] moov atom not found
 (repeated 5 more times)
2026-03-11 16:09:25,983 [ERROR   ] error while decoding MB 22 62, bytestream -15
2026-03-11 16:09:58,244 [ERROR   ] moov atom not found
2026-03-11 16:10:03,708 [ERROR   ] moov atom not found
 (repeated 5 more times)
2026-03-11 16:10:03,708 [ERROR   ] error while decoding MB 22 62, bytestream -15
2026-03-11 16:10:36,565 [ERROR   ] moov atom not found
2026-03-11 16:10:42,236 [ERROR   ] moov atom not found
 (repeated 5 more times)
2026-03-11 16:10:42,237 [ERROR   ] error while decoding MB 22 62, bytestream -15
2026-03-11 16:11:06,623 [ERROR   ] error while decoding MB 25 3, bytestream -6
2026-03-11 16:11:15,261 [ERROR   ] moov atom not found
2026-03-11 16:11:21,144 [ERROR   ] moov atom not found
 (repeated 5 more times)
2026-03-11 16:11:21,146 [ERROR   ] error while decoding MB 22 62, bytestream -15
2026-03-11 16:11:54,395 [ERROR   ] moov atom not found
2026-03-11 16:11:59,149 [ERROR   ] moov atom not found
 (repeated 5 more times)
2026-03-11 16:11:59,150 [ERROR   ] error while decoding MB 22 62, bytestream -15
2026-03-11 16:12:32,031 [ERROR   ] moov atom not found
2026-03-11 16:12:37,419 [ERROR   ] moov atom not found
 (repeated 5 more times)
2026-03-11 16:12:37,420 [ERROR   ] error while decoding MB 22 62, bytestream -15
2026-03-11 16:13:09,487 [ERROR   ] moov atom not found
2026-03-11 16:13:14,093 [ERROR   ] moov atom not found
 (repeated 5 more times)
2026-03-11 16:13:14,094 [ERROR   ] error while decoding MB 22 62, bytestream -15
2026-03-11 16:13:46,555 [ERROR   ] moov atom not found
2026-03-11 16:13:51,738 [ERROR   ] moov atom not found
 (repeated 5 more times)
2026-03-11 16:13:51,739 [ERROR   ] error while decoding MB 22 62, bytestream -15
2026-03-11 16:14:21,361 [ERROR   ] error while decoding MB 117 4, bytestream -24
2026-03-11 16:14:24,746 [ERROR   ] moov atom not found
2026-03-11 16:14:30,071 [ERROR   ] moov atom not found
 (repeated 5 more times)
2026-03-11 16:14:30,072 [ERROR   ] error while decoding MB 22 62, bytestream -15
2026-03-11 16:14:33,638 [ERROR   ] error while decoding MB 52 16, bytestream -5
2026-03-11 16:14:39,114 [ERROR   ] error while decoding MB 110 63, bytestream -8
2026-03-11 16:14:51,788 [ERROR   ] error while decoding MB 28 44, bytestream -20
2026-03-11 16:15:02,841 [ERROR   ] moov atom not found
2026-03-11 16:15:07,031 [ERROR   ] moov atom not found
 (repeated 5 more times)
2026-03-11 16:15:07,032 [ERROR   ] error while decoding MB 22 62, bytestream -15
2026-03-11 16:15:20,024 [ERROR   ] error while decoding MB 105 3, bytestream -14
2026-03-11 16:15:39,935 [ERROR   ] moov atom not found
2026-03-11 16:15:45,458 [ERROR   ] moov atom not found
 (repeated 5 more times)
2026-03-11 16:15:45,459 [ERROR   ] error while decoding MB 22 62, bytestream -15
2026-03-11 16:16:19,126 [ERROR   ] moov atom not found
2026-03-11 16:16:22,841 [ERROR   ] moov atom not found
 (repeated 5 more times)
2026-03-11 16:16:22,842 [ERROR   ] error while decoding MB 22 62, bytestream -15
2026-03-11 16:16:50,673 [ERROR   ] error while decoding MB 14 28, bytestream -22
2026-03-11 16:16:55,034 [ERROR   ] moov atom not found
2026-03-11 16:16:58,977 [ERROR   ] moov atom not found
 (repeated 5 more times)
2026-03-11 16:16:58,977 [ERROR   ] error while decoding MB 22 62, bytestream -15
2026-03-11 16:17:31,453 [ERROR   ] moov atom not found
2026-03-11 16:17:35,509 [ERROR   ] moov atom not found
 (repeated 5 more times)
2026-03-11 16:17:35,509 [ERROR   ] error while decoding MB 22 62, bytestream -15
2026-03-11 16:17:41,741 [ERROR   ] error while decoding MB 111 62, bytestream -6
2026-03-11 16:17:50,394 [ERROR   ] error while decoding MB 0 33, bytestream -10
2026-03-11 16:17:59,346 [ERROR   ] error while decoding MB 53 55, bytestream -16
2026-03-11 16:18:08,100 [ERROR   ] moov atom not found
2026-03-11 16:18:09,730 [ERROR   ] moov atom not found
2026-03-11 16:18:09,730 [ERROR   ] error while decoding MB 26 22, bytestream -10
2026-03-11 16:18:10,023 [ERROR   ] moov atom not found
2026-03-11 16:18:12,275 [ERROR   ] moov atom not found
 (repeated 3 more times)
2026-03-11 16:18:12,276 [ERROR   ] error while decoding MB 22 62, bytestream -15
2026-03-11 16:18:14,947 [ERROR   ] error while decoding MB 68 62, bytestream -6
2026-03-11 16:18:45,038 [ERROR   ] moov atom not found
2026-03-11 16:18:50,075 [ERROR   ] moov atom not found
 (repeated 5 more times)
2026-03-11 16:18:50,076 [ERROR   ] error while decoding MB 22 62, bytestream -15
2026-03-11 16:19:00,018 [ERROR   ] error while decoding MB 104 34, bytestream -42
2026-03-11 16:19:22,151 [ERROR   ] moov atom not found
2026-03-11 16:19:26,942 [ERROR   ] moov atom not found
 (repeated 5 more times)
2026-03-11 16:19:26,942 [ERROR   ] error while decoding MB 22 62, bytestream -15
2026-03-15 11:44:59,328 [ERROR   ] [FAIL] 'Spiderman' Vacuum Gloves Part 1 - Bang Goes the Theory - BBC [XNOEP1XIFiM].mxf: ffmpeg mux failed:
ffmpeg version 4.4.2-0ubuntu0.22.04.1 Copyright (c) 2000-2021 the FFmpeg developers
  built with gcc 11 (Ubuntu 11.2.0-19ubuntu1)
  configuration: --prefix=/usr --extra-version=0ubuntu0.22.04.1 --toolchain=hardened --libdir=/usr/lib/x86_64-linux-gnu --incdir=/usr/include/x86_64-linux-gnu --arch=amd64 --enable-gpl --disable-stripping --enable-gnutls --enable-ladspa --enable-libaom --enable-libass --enable-libbluray --enable-libbs2b --enable-libcaca --enable-libcdio --enable-libcodec2 --enable-libdav1d --enable-libflite --enable-libfontconfig --enable-libfreetype --enable-libfribidi --enable-libgme --enable-libgsm --enable-libjack --enable-libmp3lame --enable-libmysofa --enable-libopenjpeg --enable-libopenmpt --enable-libopus --enable-libpulse --enable-librabbitmq --enable-librubberband --enable-libshine --enable-libsnappy --enable-libsoxr --enable-libspeex --enable-libsrt --enable-libssh --enable-libtheora --enable-libtwolame --enable-libvidstab --enable-libvorbis --enable-libvpx --enable-libwebp --enable-libx265 --enable-libxml2 --enable-libxvid --enable-libzimg --enable-libzmq --enable-libzvbi --enable-lv2 --enable-omx --enable-openal --enable-opencl --enable-opengl --enable-sdl2 --enable-pocketsphinx --enable-librsvg --enable-libmfx --enable-libdc1394 --enable-libdrm --enable-libiec61883 --enable-chromaprint --enable-frei0r --enable-libx264 --enable-shared
  libavutil      56. 70.100 / 56. 70.100
  libavcodec     58.134.100 / 58.134.100
  libavformat    58. 76.100 / 58. 76.100
  libavdevice    58. 13.100 / 58. 13.100
  libavfilter     7.110.100 /  7.110.100
  libswscale      5.  9.100 /  5.  9.100
  libswresample   3.  9.100 /  3.  9.100
  libpostproc    55.  9.100 / 55.  9.100
Input #0, mov,mp4,m4a,3gp,3g2,mj2, from '/tmp/tmpzq8gbtkr.mp4':
  Metadata:
    major_brand     : isom
    minor_version   : 512
    compatible_brands: isomiso2avc1mp41
    encoder         : Lavf62.3.100
  Duration: 00:03:42.80, start: 0.000000, bitrate: 826 kb/s
  Stream #0:0(und): Video: h264 (High) (avc1 / 0x31637661), yuv420p, 640x360, 823 kb/s, 25 fps, 25 tbr, 12800 tbn, 50 tbc (default)
    Metadata:
      handler_name    : VideoHandler
      vendor_id       : [0][0][0][0]
Guessed Channel Layout for Input Stream #1.0 : stereo
Input #1, wav, from '/tmp/tmpksgq4lp2.wav':
  Metadata:
    encoder         : Lavf58.76.100
    timecode        : 00:00:00:00
  Duration: 00:03:42.80, bitrate: 1536 kb/s
  Stream #1:0: Audio: pcm_s16le ([1][0][0][0] / 0x0001), 48000 Hz, stereo, s16, 1536 kb/s
Output #0, mxf, to '/data/output/'Spiderman' Vacuum Gloves Part 1 - Bang Goes the Theory - BBC [XNOEP1XIFiM].mxf':
  Metadata:
    major_brand     : isom
    minor_version   : 512
    compatible_brands: isomiso2avc1mp41
    encoder         : Lavf58.76.100
  Stream #0:0(und): Video: h264 (High) (avc1 / 0x31637661), yuv420p, 640x360, q=2-31, 823 kb/s, 25 fps, 25 tbr, 25 tbn, 25 tbc (default)
    Metadata:
      handler_name    : VideoHandler
      vendor_id       : [0][0][0][0]
  Stream #0:1: Audio: pcm_s16le ([1][0][0][0] / 0x0001), 48000 Hz, stereo, s16, 1536 kb/s
Stream mapping:
  Stream #0:0 -> #0:0 (copy)
  Stream #1:0 -> #0:1 (copy)
Press [q] to stop, [?] for help
frame=    1 fps=0.0 q=-1.0 size=       0kB time=00:00:00.00 bitrate=N/A speed=   0x    [mxf @ 0x568a8c08ee80] h264 profile not supported
[mxf @ 0x568a8c08ee80] could not get h264 profile
av_interleaved_write_frame(): Operation not permitted
[mxf @ 0x568a8c08ee80] Received non-video packet before header has been written
Error writing trailer of /data/output/'Spiderman' Vacuum Gloves Part 1 - Bang Goes the Theory - BBC [XNOEP1XIFiM].mxf: Invalid data found when processing input
frame=    1 fps=0.0 q=-1.0 Lsize=       0kB time=00:00:00.04 bitrate=   0.0kbits/s speed=21.7x    
video:27kB audio:8kB subtitle:0kB other streams:0kB global headers:0kB muxing overhead: unknown
Conversion failed!
Traceback (most recent call last):
  File "/app/watcher_service/service.py", line 156, in _worker
    result = embed_to_file(
  File "/app/watcher_service/worker.py", line 314, in embed_to_file
    _mux_video_audio(tmp_vid, audio_final, output_path, fmt)
  File "/app/web_demo/core/video_io.py", line 408, in _mux_video_audio
    raise RuntimeError(
RuntimeError: ffmpeg mux failed:
ffmpeg version 4.4.2-0ubuntu0.22.04.1 Copyright (c) 2000-2021 the FFmpeg developers
  built with gcc 11 (Ubuntu 11.2.0-19ubuntu1)
  configuration: --prefix=/usr --extra-version=0ubuntu0.22.04.1 --toolchain=hardened --libdir=/usr/lib/x86_64-linux-gnu --incdir=/usr/include/x86_64-linux-gnu --arch=amd64 --enable-gpl --disable-stripping --enable-gnutls --enable-ladspa --enable-libaom --enable-libass --enable-libbluray --enable-libbs2b --enable-libcaca --enable-libcdio --enable-libcodec2 --enable-libdav1d --enable-libflite --enable-libfontconfig --enable-libfreetype --enable-libfribidi --enable-libgme --enable-libgsm --enable-libjack --enable-libmp3lame --enable-libmysofa --enable-libopenjpeg --enable-libopenmpt --enable-libopus --enable-libpulse --enable-librabbitmq --enable-librubberband --enable-libshine --enable-libsnappy --enable-libsoxr --enable-libspeex --enable-libsrt --enable-libssh --enable-libtheora --enable-libtwolame --enable-libvidstab --enable-libvorbis --enable-libvpx --enable-libwebp --enable-libx265 --enable-libxml2 --enable-libxvid --enable-libzimg --enable-libzmq --enable-libzvbi --enable-lv2 --enable-omx --enable-openal --enable-opencl --enable-opengl --enable-sdl2 --enable-pocketsphinx --enable-librsvg --enable-libmfx --enable-libdc1394 --enable-libdrm --enable-libiec61883 --enable-chromaprint --enable-frei0r --enable-libx264 --enable-shared
  libavutil      56. 70.100 / 56. 70.100
  libavcodec     58.134.100 / 58.134.100
  libavformat    58. 76.100 / 58. 76.100
  libavdevice    58. 13.100 / 58. 13.100
  libavfilter     7.110.100 /  7.110.100
  libswscale      5.  9.100 /  5.  9.100
  libswresample   3.  9.100 /  3.  9.100
  libpostproc    55.  9.100 / 55.  9.100
Input #0, mov,mp4,m4a,3gp,3g2,mj2, from '/tmp/tmpzq8gbtkr.mp4':
  Metadata:
    major_brand     : isom
    minor_version   : 512
    compatible_brands: isomiso2avc1mp41
    encoder         : Lavf62.3.100
  Duration: 00:03:42.80, start: 0.000000, bitrate: 826 kb/s
  Stream #0:0(und): Video: h264 (High) (avc1 / 0x31637661), yuv420p, 640x360, 823 kb/s, 25 fps, 25 tbr, 12800 tbn, 50 tbc (default)
    Metadata:
      handler_name    : VideoHandler
      vendor_id       : [0][0][0][0]
Guessed Channel Layout for Input Stream #1.0 : stereo
Input #1, wav, from '/tmp/tmpksgq4lp2.wav':
  Metadata:
    encoder         : Lavf58.76.100
    timecode        : 00:00:00:00
  Duration: 00:03:42.80, bitrate: 1536 kb/s
  Stream #1:0: Audio: pcm_s16le ([1][0][0][0] / 0x0001), 48000 Hz, stereo, s16, 1536 kb/s
Output #0, mxf, to '/data/output/'Spiderman' Vacuum Gloves Part 1 - Bang Goes the Theory - BBC [XNOEP1XIFiM].mxf':
  Metadata:
    major_brand     : isom
    minor_version   : 512
    compatible_brands: isomiso2avc1mp41
    encoder         : Lavf58.76.100
  Stream #0:0(und): Video: h264 (High) (avc1 / 0x31637661), yuv420p, 640x360, q=2-31, 823 kb/s, 25 fps, 25 tbr, 25 tbn, 25 tbc (default)
    Metadata:
      handler_name    : VideoHandler
      vendor_id       : [0][0][0][0]
  Stream #0:1: Audio: pcm_s16le ([1][0][0][0] / 0x0001), 48000 Hz, stereo, s16, 1536 kb/s
Stream mapping:
  Stream #0:0 -> #0:0 (copy)
  Stream #1:0 -> #0:1 (copy)
Press [q] to stop, [?] for help
frame=    1 fps=0.0 q=-1.0 size=       0kB time=00:00:00.00 bitrate=N/A speed=   0x    [mxf @ 0x568a8c08ee80] h264 profile not supported
[mxf @ 0x568a8c08ee80] could not get h264 profile
av_interleaved_write_frame(): Operation not permitted
[mxf @ 0x568a8c08ee80] Received non-video packet before header has been written
Error writing trailer of /data/output/'Spiderman' Vacuum Gloves Part 1 - Bang Goes the Theory - BBC [XNOEP1XIFiM].mxf: Invalid data found when processing input
frame=    1 fps=0.0 q=-1.0 Lsize=       0kB time=00:00:00.04 bitrate=   0.0kbits/s speed=21.7x    
video:27kB audio:8kB subtitle:0kB other streams:0kB global headers:0kB muxing overhead: unknown
Conversion failed!

2026-03-15 11:46:49,614 [ERROR   ] [FAIL] 'Spiderman' Vacuum Gloves Part 2 - Bang Goes the Theory - BBC [W1qoINo2MPM].mxf: ffmpeg mux failed:
ffmpeg version 4.4.2-0ubuntu0.22.04.1 Copyright (c) 2000-2021 the FFmpeg developers
  built with gcc 11 (Ubuntu 11.2.0-19ubuntu1)
  configuration: --prefix=/usr --extra-version=0ubuntu0.22.04.1 --toolchain=hardened --libdir=/usr/lib/x86_64-linux-gnu --incdir=/usr/include/x86_64-linux-gnu --arch=amd64 --enable-gpl --disable-stripping --enable-gnutls --enable-ladspa --enable-libaom --enable-libass --enable-libbluray --enable-libbs2b --enable-libcaca --enable-libcdio --enable-libcodec2 --enable-libdav1d --enable-libflite --enable-libfontconfig --enable-libfreetype --enable-libfribidi --enable-libgme --enable-libgsm --enable-libjack --enable-libmp3lame --enable-libmysofa --enable-libopenjpeg --enable-libopenmpt --enable-libopus --enable-libpulse --enable-librabbitmq --enable-librubberband --enable-libshine --enable-libsnappy --enable-libsoxr --enable-libspeex --enable-libsrt --enable-libssh --enable-libtheora --enable-libtwolame --enable-libvidstab --enable-libvorbis --enable-libvpx --enable-libwebp --enable-libx265 --enable-libxml2 --enable-libxvid --enable-libzimg --enable-libzmq --enable-libzvbi --enable-lv2 --enable-omx --enable-openal --enable-opencl --enable-opengl --enable-sdl2 --enable-pocketsphinx --enable-librsvg --enable-libmfx --enable-libdc1394 --enable-libdrm --enable-libiec61883 --enable-chromaprint --enable-frei0r --enable-libx264 --enable-shared
  libavutil      56. 70.100 / 56. 70.100
  libavcodec     58.134.100 / 58.134.100
  libavformat    58. 76.100 / 58. 76.100
  libavdevice    58. 13.100 / 58. 13.100
  libavfilter     7.110.100 /  7.110.100
  libswscale      5.  9.100 /  5.  9.100
  libswresample   3.  9.100 /  3.  9.100
  libpostproc    55.  9.100 / 55.  9.100
Input #0, mov,mp4,m4a,3gp,3g2,mj2, from '/tmp/tmpmdmi4g0l.mp4':
  Metadata:
    major_brand     : isom
    minor_version   : 512
    compatible_brands: isomiso2avc1mp41
    encoder         : Lavf62.3.100
  Duration: 00:03:42.40, start: 0.000000, bitrate: 1098 kb/s
  Stream #0:0(und): Video: h264 (High) (avc1 / 0x31637661), yuv420p, 640x360, 1096 kb/s, 25 fps, 25 tbr, 12800 tbn, 50 tbc (default)
    Metadata:
      handler_name    : VideoHandler
      vendor_id       : [0][0][0][0]
Guessed Channel Layout for Input Stream #1.0 : stereo
Input #1, wav, from '/tmp/tmplbgnumc4.wav':
  Metadata:
    encoder         : Lavf58.76.100
    timecode        : 00:00:00:00
  Duration: 00:03:42.40, bitrate: 1536 kb/s
  Stream #1:0: Audio: pcm_s16le ([1][0][0][0] / 0x0001), 48000 Hz, stereo, s16, 1536 kb/s
Output #0, mxf, to '/data/output/'Spiderman' Vacuum Gloves Part 2 - Bang Goes the Theory - BBC [W1qoINo2MPM].mxf':
  Metadata:
    major_brand     : isom
    minor_version   : 512
    compatible_brands: isomiso2avc1mp41
    encoder         : Lavf58.76.100
  Stream #0:0(und): Video: h264 (High) (avc1 / 0x31637661), yuv420p, 640x360, q=2-31, 1096 kb/s, 25 fps, 25 tbr, 25 tbn, 25 tbc (default)
    Metadata:
      handler_name    : VideoHandler
      vendor_id       : [0][0][0][0]
  Stream #0:1: Audio: pcm_s16le ([1][0][0][0] / 0x0001), 48000 Hz, stereo, s16, 1536 kb/s
Stream mapping:
  Stream #0:0 -> #0:0 (copy)
  Stream #1:0 -> #0:1 (copy)
Press [q] to stop, [?] for help
frame=    1 fps=0.0 q=-1.0 size=       0kB time=00:00:00.00 bitrate=N/A speed=   0x    [mxf @ 0x62793f44afc0] h264 profile not supported
[mxf @ 0x62793f44afc0] could not get h264 profile
av_interleaved_write_frame(): Operation not permitted
[mxf @ 0x62793f44afc0] Received non-video packet before header has been written
Error writing trailer of /data/output/'Spiderman' Vacuum Gloves Part 2 - Bang Goes the Theory - BBC [W1qoINo2MPM].mxf: Invalid data found when processing input
frame=    1 fps=0.0 q=-1.0 Lsize=       0kB time=00:00:00.04 bitrate=   0.0kbits/s speed=64.7x    
video:32kB audio:8kB subtitle:0kB other streams:0kB global headers:0kB muxing overhead: unknown
Conversion failed!
Traceback (most recent call last):
  File "/app/watcher_service/service.py", line 156, in _worker
    result = embed_to_file(
  File "/app/watcher_service/worker.py", line 314, in embed_to_file
    _mux_video_audio(tmp_vid, audio_final, output_path, fmt)
  File "/app/web_demo/core/video_io.py", line 408, in _mux_video_audio
    raise RuntimeError(
RuntimeError: ffmpeg mux failed:
ffmpeg version 4.4.2-0ubuntu0.22.04.1 Copyright (c) 2000-2021 the FFmpeg developers
  built with gcc 11 (Ubuntu 11.2.0-19ubuntu1)
  configuration: --prefix=/usr --extra-version=0ubuntu0.22.04.1 --toolchain=hardened --libdir=/usr/lib/x86_64-linux-gnu --incdir=/usr/include/x86_64-linux-gnu --arch=amd64 --enable-gpl --disable-stripping --enable-gnutls --enable-ladspa --enable-libaom --enable-libass --enable-libbluray --enable-libbs2b --enable-libcaca --enable-libcdio --enable-libcodec2 --enable-libdav1d --enable-libflite --enable-libfontconfig --enable-libfreetype --enable-libfribidi --enable-libgme --enable-libgsm --enable-libjack --enable-libmp3lame --enable-libmysofa --enable-libopenjpeg --enable-libopenmpt --enable-libopus --enable-libpulse --enable-librabbitmq --enable-librubberband --enable-libshine --enable-libsnappy --enable-libsoxr --enable-libspeex --enable-libsrt --enable-libssh --enable-libtheora --enable-libtwolame --enable-libvidstab --enable-libvorbis --enable-libvpx --enable-libwebp --enable-libx265 --enable-libxml2 --enable-libxvid --enable-libzimg --enable-libzmq --enable-libzvbi --enable-lv2 --enable-omx --enable-openal --enable-opencl --enable-opengl --enable-sdl2 --enable-pocketsphinx --enable-librsvg --enable-libmfx --enable-libdc1394 --enable-libdrm --enable-libiec61883 --enable-chromaprint --enable-frei0r --enable-libx264 --enable-shared
  libavutil      56. 70.100 / 56. 70.100
  libavcodec     58.134.100 / 58.134.100
  libavformat    58. 76.100 / 58. 76.100
  libavdevice    58. 13.100 / 58. 13.100
  libavfilter     7.110.100 /  7.110.100
  libswscale      5.  9.100 /  5.  9.100
  libswresample   3.  9.100 /  3.  9.100
  libpostproc    55.  9.100 / 55.  9.100
Input #0, mov,mp4,m4a,3gp,3g2,mj2, from '/tmp/tmpmdmi4g0l.mp4':
  Metadata:
    major_brand     : isom
    minor_version   : 512
    compatible_brands: isomiso2avc1mp41
    encoder         : Lavf62.3.100
  Duration: 00:03:42.40, start: 0.000000, bitrate: 1098 kb/s
  Stream #0:0(und): Video: h264 (High) (avc1 / 0x31637661), yuv420p, 640x360, 1096 kb/s, 25 fps, 25 tbr, 12800 tbn, 50 tbc (default)
    Metadata:
      handler_name    : VideoHandler
      vendor_id       : [0][0][0][0]
Guessed Channel Layout for Input Stream #1.0 : stereo
Input #1, wav, from '/tmp/tmplbgnumc4.wav':
  Metadata:
    encoder         : Lavf58.76.100
    timecode        : 00:00:00:00
  Duration: 00:03:42.40, bitrate: 1536 kb/s
  Stream #1:0: Audio: pcm_s16le ([1][0][0][0] / 0x0001), 48000 Hz, stereo, s16, 1536 kb/s
Output #0, mxf, to '/data/output/'Spiderman' Vacuum Gloves Part 2 - Bang Goes the Theory - BBC [W1qoINo2MPM].mxf':
  Metadata:
    major_brand     : isom
    minor_version   : 512
    compatible_brands: isomiso2avc1mp41
    encoder         : Lavf58.76.100
  Stream #0:0(und): Video: h264 (High) (avc1 / 0x31637661), yuv420p, 640x360, q=2-31, 1096 kb/s, 25 fps, 25 tbr, 25 tbn, 25 tbc (default)
    Metadata:
      handler_name    : VideoHandler
      vendor_id       : [0][0][0][0]
  Stream #0:1: Audio: pcm_s16le ([1][0][0][0] / 0x0001), 48000 Hz, stereo, s16, 1536 kb/s
Stream mapping:
  Stream #0:0 -> #0:0 (copy)
  Stream #1:0 -> #0:1 (copy)
Press [q] to stop, [?] for help
frame=    1 fps=0.0 q=-1.0 size=       0kB time=00:00:00.00 bitrate=N/A speed=   0x    [mxf @ 0x62793f44afc0] h264 profile not supported
[mxf @ 0x62793f44afc0] could not get h264 profile
av_interleaved_write_frame(): Operation not permitted
[mxf @ 0x62793f44afc0] Received non-video packet before header has been written
Error writing trailer of /data/output/'Spiderman' Vacuum Gloves Part 2 - Bang Goes the Theory - BBC [W1qoINo2MPM].mxf: Invalid data found when processing input
frame=    1 fps=0.0 q=-1.0 Lsize=       0kB time=00:00:00.04 bitrate=   0.0kbits/s speed=64.7x    
video:32kB audio:8kB subtitle:0kB other streams:0kB global headers:0kB muxing overhead: unknown
Conversion failed!

